<?xml version="1.0" encoding="UTF-8" standalone="no"?>
<!-- Created with Inkscape (http://www.inkscape.org/) -->

<svg
   width="10.339873mm"
   height="13.229232mm"
   viewBox="0 0 10.339873 13.229232"
   version="1.1"
   id="svg1"
   xml:space="preserve"
   inkscape:version="1.3.2 (091e20e, 2023-11-25, custom)"
   sodipodi:docname="projeto-MoviTalent.svg"
   xmlns:inkscape="http://www.inkscape.org/namespaces/inkscape"
   xmlns:sodipodi="http://sodipodi.sourceforge.net/DTD/sodipodi-0.dtd"
   xmlns="http://www.w3.org/2000/svg"
   xmlns:svg="http://www.w3.org/2000/svg"><sodipodi:namedview
     id="namedview1"
     pagecolor="#ffffff"
     bordercolor="#000000"
     borderopacity="0.25"
     inkscape:showpageshadow="2"
     inkscape:pageopacity="0.0"
     inkscape:pagecheckerboard="0"
     inkscape:deskcolor="#d1d1d1"
     inkscape:document-units="mm"
     inkscape:zoom="1"
     inkscape:cx="-2222"
     inkscape:cy="124.5"
     inkscape:window-width="1920"
     inkscape:window-height="991"
     inkscape:window-x="-9"
     inkscape:window-y="-9"
     inkscape:window-maximized="1"
     inkscape:current-layer="g11" /><defs
     id="defs1" /><g
     inkscape:label="Camada 1"
     inkscape:groupmode="layer"
     id="layer1"
     transform="translate(450.13816,-119.34797)"><path
       style="fill:#ffffff;fill-opacity:1;stroke-width:0.097832"
       d="m -445.23308,132.55802 c -0.19346,-0.0284 -0.46218,-0.13638 -0.64299,-0.25851 -0.26413,-0.17841 -0.52848,-0.52341 -0.61841,-0.80706 l -0.0308,-0.0971 h -1.63351 c -1.59925,0 -1.63583,-7.9e-4 -1.74423,-0.0536 -0.18447,-0.0893 -0.2792,-0.31212 -0.21518,-0.50611 0.0177,-0.0535 0.10355,-0.17358 0.19093,-0.267 0.55057,-0.58864 0.92851,-1.22576 1.17859,-1.98687 0.27023,-0.82246 0.31228,-1.15987 0.338,-2.71282 0.018,-1.08554 0.0258,-1.24029 0.0723,-1.43661 0.1621,-0.68363 0.46632,-1.2377 0.93921,-1.7106 0.27156,-0.27156 0.67908,-0.5606 0.96763,-0.68631 0.093,-0.0405 0.1691,-0.0838 0.1691,-0.0963 0,-0.0124 -0.0218,-0.0535 -0.0485,-0.0913 -0.17083,-0.24226 -0.26607,-0.55903 -0.26711,-0.88846 -7.8e-4,-0.28544 0.0356,-0.44498 0.16349,-0.71359 0.18259,-0.3837 0.50811,-0.67136 0.92747,-0.8196 0.19698,-0.0696 0.25372,-0.0782 0.51884,-0.0782 0.26513,0 0.32186,0.009 0.51884,0.0782 0.41937,0.14824 0.74487,0.4359 0.92748,0.8196 0.12783,0.26861 0.16438,0.42815 0.16348,0.71359 -7.8e-4,0.32943 -0.0963,0.6462 -0.26711,0.88846 -0.0267,0.0377 -0.0485,0.0789 -0.0485,0.0913 0,0.0124 0.0761,0.0557 0.16909,0.0963 0.28855,0.12571 0.69607,0.41475 0.96763,0.68631 0.47286,0.47286 0.77692,1.02662 0.93927,1.7106 0.0465,0.19597 0.0545,0.35161 0.0728,1.42367 0.0215,1.25925 0.038,1.48772 0.14572,2.01901 0.21136,1.04237 0.67108,1.946 1.37036,2.69362 0.0874,0.0934 0.17329,0.21356 0.19093,0.267 0.064,0.19399 -0.0307,0.41681 -0.21517,0.50611 -0.10842,0.0524 -0.14499,0.0536 -1.74425,0.0536 h -1.6335 l -0.0308,0.0971 c -0.0523,0.16501 -0.20049,0.41021 -0.34041,0.5633 -0.36767,0.40229 -0.89269,0.58404 -1.45085,0.50227 z m 0.59679,-0.93144 c 0.0874,-0.0437 0.18326,-0.11358 0.21298,-0.15531 l 0.054,-0.0759 h -0.59887 -0.59887 l 0.054,0.0759 c 0.0297,0.0417 0.12555,0.11162 0.21298,0.15531 0.12978,0.0649 0.19065,0.0794 0.33186,0.0794 0.1412,0 0.20208,-0.0145 0.33187,-0.0794 z m 3.44731,-1.09976 c 0,-0.008 -0.0445,-0.0807 -0.0988,-0.16178 -0.43341,-0.64689 -0.77191,-1.48202 -0.94632,-2.33468 -0.11468,-0.56063 -0.12383,-0.68326 -0.14583,-1.95431 -0.0217,-1.2526 -0.0315,-1.37837 -0.13206,-1.6944 -0.22983,-0.72218 -0.80734,-1.34293 -1.50825,-1.62121 -0.31544,-0.12524 -0.57489,-0.17243 -0.94796,-0.17243 -0.20829,0 -0.39733,0.0159 -0.53064,0.0445 -0.9268,0.19908 -1.67647,0.90128 -1.94258,1.81956 -0.0905,0.3123 -0.11478,0.66879 -0.11503,1.68888 -2e-4,0.97168 -0.027,1.32012 -0.14497,1.88943 -0.17818,0.85973 -0.51464,1.68906 -0.94719,2.33468 -0.0543,0.0811 -0.0988,0.15389 -0.0988,0.16178 0,0.008 1.70063,0.0144 3.77917,0.0144 2.07856,0 3.77918,-0.006 3.77918,-0.0144 z m -3.45092,-8.90639 c 0.25785,-0.12178 0.40806,-0.36824 0.40806,-0.66957 0,-0.41903 -0.31779,-0.73721 -0.73632,-0.73721 -0.49375,0 -0.85109,0.4691 -0.7147,0.93825 0.13251,0.45582 0.61292,0.67163 1.04296,0.46853 z"
       id="path17"
       inkscape:export-filename="imagens\icon-sino.webp"
       inkscape:export-xdpi="57.59972"
       inkscape:export-ydpi="57.59972" /></g></svg>
